<?xml version="1.0" standalone="no"?>
<!DOCTYPE svg PUBLIC "-//W3C//DTD SVG 20010904//EN"
 "http://www.w3.org/TR/2001/REC-SVG-20010904/DTD/svg10.dtd">
<svg version="1.0" xmlns="http://www.w3.org/2000/svg"
 width="206.000000pt" height="206.000000pt" viewBox="0 0 206.000000 206.000000"
 preserveAspectRatio="xMidYMid meet">
<metadata>
Created by potrace 1.14, written by Peter Selinger 2001-2017
</metadata>
<g transform="translate(0.000000,206.000000) scale(0.100000,-0.100000)"
fill="#000000" stroke="none">
<path d="M468 1985 c-22 -36 -20 -2 -20 -384 l0 -314 24 -24 c22 -22 34 -24
105 -25 80 0 115 11 130 42 4 8 8 116 8 240 l2 225 370 -1 c403 0 412 -1 454
-57 19 -26 24 -44 24 -98 0 -56 -4 -72 -28 -106 -37 -54 -89 -81 -160 -84 -32
-1 -61 2 -66 7 -4 5 -15 30 -25 56 -19 52 -87 121 -141 144 -47 19 -244 19
-270 0 -29 -21 -34 -142 -7 -175 18 -24 25 -25 119 -30 40 -2 90 -56 103 -112
11 -43 10 -56 -4 -87 -24 -54 -76 -85 -144 -89 -80 -4 -92 -18 -92 -112 0 -42
4 -81 8 -87 17 -25 52 -33 153 -30 148 4 201 34 265 154 32 62 48 72 108 74
86 1 148 -37 180 -112 20 -48 13 -131 -14 -175 -42 -68 -42 -68 -457 -69
l-373 -1 -1 30 c0 17 -1 82 -1 145 -1 124 -12 164 -49 175 -12 4 -58 7 -102 7
-127 -1 -122 14 -121 -311 0 -289 1 -293 52 -312 22 -9 910 -13 972 -5 96 12
166 46 233 111 176 175 180 455 8 621 l-50 48 35 39 c82 90 124 187 129 296 7
175 -106 341 -269 396 -37 13 -131 16 -557 18 l-512 2 -19 -30z m1104 -92
c142 -67 204 -231 148 -390 -46 -130 -135 -219 -250 -248 -149 -38 -187 -63
-236 -158 -35 -67 -89 -124 -132 -138 -51 -18 -120 -19 -159 -3 -27 11 -33 18
-33 43 0 38 9 43 80 46 90 4 154 53 193 145 38 92 112 138 233 143 44 2 89 9
100 15 32 17 94 90 112 131 18 42 21 201 4 242 -19 47 -72 98 -111 109 -22 6
-209 10 -464 10 l-427 0 0 -235 c0 -251 -5 -285 -45 -285 -46 0 -48 14 -48
296 1 263 1 265 24 290 l23 25 461 -3 460 -3 67 -32z m-448 -342 c73 -45 148
-155 123 -180 -6 -6 -15 -11 -20 -11 -5 0 -23 -12 -40 -26 l-31 -26 -11 39
c-27 92 -67 119 -182 122 -45 2 -72 68 -40 100 19 20 160 7 201 -18z m518
-358 c67 -74 109 -179 111 -280 1 -52 -5 -73 -36 -136 -42 -85 -85 -128 -174
-173 l-58 -29 -445 -3 c-245 -2 -454 -1 -466 2 -12 3 -25 14 -30 23 -4 10 -8
108 -9 218 -3 220 2 238 53 229 14 -3 29 -7 34 -10 4 -3 8 -86 8 -185 0 -136
3 -179 13 -180 6 0 199 -1 427 -1 402 -1 417 0 456 20 89 45 129 123 128 247
-1 133 -85 237 -181 226 -13 -1 -23 2 -23 8 0 6 3 10 8 9 15 -4 88 14 112 27
35 20 43 19 72 -12z"/>
<path d="M874 1289 c-17 -19 -17 -23 -3 -47 24 -44 73 -39 91 9 9 24 -19 59
-46 59 -13 0 -31 -9 -42 -21z m71 -17 c4 -10 -1 -22 -12 -29 -21 -16 -33 -13
-47 11 -9 13 -7 20 7 31 22 16 43 11 52 -13z"/>
</g>
</svg>
